PathFileType	4	(X/Y/Z)	C:/Users/opensim2020/Desktop/walking_exp_matlab/subject03_walking04_static.trc	
DataRate	CameraRate	NumFrames	NumMarkers	Units	OrigDataRate	OrigDataStartFrame	OrigNumFrames	
100.00	100.00	4	51	mm	100.00	183	196	
Frame#	Time	LFHD			RFHD			LBHD			RBHD			C7			T10			CLAV			STRN			RBAK			LSHO			LUPA			LELB			LFRM			LWRA			LWRB			LFIN			RSHO			RUPA			RELB			RFRM			RWRA			RWRB			RFIN			LASI			RASI			LPSI			RPSI			LTHI			LKNE			LTIB			LANK			LHEE			LTOE			RTHI			RKNE			RTIB			RANK			RHEE			RTOE			*39			*40			*41			*42			*43			*44			*45			*46			*47			*48			*49			*50			
		X1	Y1	Z1	X2	Y2	Z2	X3	Y3	Z3	X4	Y4	Z4	X5	Y5	Z5	X6	Y6	Z6	X7	Y7	Z7	X8	Y8	Z8	X9	Y9	Z9	X10	Y10	Z10	X11	Y11	Z11	X12	Y12	Z12	X13	Y13	Z13	X14	Y14	Z14	X15	Y15	Z15	X16	Y16	Z16	X17	Y17	Z17	X18	Y18	Z18	X19	Y19	Z19	X20	Y20	Z20	X21	Y21	Z21	X22	Y22	Z22	X23	Y23	Z23	X24	Y24	Z24	X25	Y25	Z25	X26	Y26	Z26	X27	Y27	Z27	X28	Y28	Z28	X29	Y29	Z29	X30	Y30	Z30	X31	Y31	Z31	X32	Y32	Z32	X33	Y33	Z33	X34	Y34	Z34	X35	Y35	Z35	X36	Y36	Z36	X37	Y37	Z37	X38	Y38	Z38	X39	Y39	Z39	X40	Y40	Z40	X41	Y41	Z41	X42	Y42	Z42	X43	Y43	Z43	X44	Y44	Z44	X45	Y45	Z45	X46	Y46	Z46	X47	Y47	Z47	X48	Y48	Z48	X49	Y49	Z49	X50	Y50	Z50	X51	Y51	Z51	

1	0.000	358.44937	-664.62122	1632.53369	393.15155	-535.78168	1642.62097	485.25479	-690.76733	1591.71509	514.80322	-563.37817	1601.96863	529.25482	-624.23285	1426.50476	543.69812	-616.38330	1113.94263	400.39063	-609.22766	1362.75610	344.94980	-607.93591	1199.26233	578.84570	-533.54120	1247.32983	451.34830	-768.30939	1398.93359	464.52222	-854.45947	1210.16077	459.73285	-884.29364	1090.94385	428.58490	-907.22992	966.10956	395.43793	-899.76550	848.16937	431.94336	-941.45740	856.08374	408.41345	-946.70660	774.39081	480.68295	-460.05655	1390.52795	486.51755	-364.46527	1179.99084	470.35922	-330.79935	1072.67249	449.53107	-302.88654	939.27472	407.67999	-313.95941	842.75201	449.45807	-278.33896	841.47791	422.14920	-272.82321	771.09888	385.64801	-719.61475	947.02197	399.46368	-485.57535	947.69037	549.60266	-681.22723	978.80347	555.65228	-532.01624	986.56293	453.49341	-772.28644	647.37714	461.00635	-735.58447	469.80014	517.53534	-754.56738	285.41232	539.24805	-729.79181	73.78228	580.76202	-697.07172	36.79121	387.01120	-709.14575	34.47551	471.66708	-440.41556	654.04572	466.18420	-474.17480	474.17160	519.11926	-462.27325	292.88428	547.03247	-501.21722	76.14259	587.33508	-552.64899	41.79206	404.90512	-500.46445	36.44896	449.21243	-639.89911	1698.76331																																	 
2	0.010	358.39783	-664.56506	1632.52893	393.07513	-535.74023	1642.60095	485.19370	-690.70459	1591.73730	514.75562	-563.34674	1601.96082	529.19128	-624.20447	1426.55029	543.78687	-616.30035	1114.00647	400.30762	-609.21930	1362.79163	344.98932	-607.96552	1199.27087	578.74341	-533.36639	1247.46680	451.31293	-768.36127	1398.99585	464.62790	-854.50885	1210.24634	459.91840	-884.45496	1091.03528	428.82632	-907.43896	966.18280	395.77658	-900.04565	848.21106	432.22754	-941.74963	856.20734	408.74484	-946.95178	774.47186	480.50391	-460.03842	1390.64001	486.57422	-364.22928	1180.21460	470.48798	-330.38232	1072.94275	449.70276	-302.19034	939.74261	407.73294	-313.27673	842.97992	449.59189	-277.58719	841.84607	422.30057	-271.99341	771.49506	385.85721	-719.59668	947.05383	399.62540	-485.58627	947.72308	549.82129	-681.19458	978.82751	555.80017	-531.95837	986.59796	453.61334	-772.25128	647.37854	461.02484	-735.50629	469.82248	517.54016	-754.54547	285.39581	539.26410	-729.82489	73.79369	580.75293	-697.06012	36.79704	387.02277	-709.11462	34.47165	471.77634	-440.36603	654.00702	466.21692	-474.13766	474.15756	519.14355	-462.23505	292.86060	546.96588	-501.13058	76.14111	587.43457	-552.86737	41.87307	404.92316	-500.44620	36.43820	449.13083	-639.88885	1698.78735																																	 
3	0.020	358.30917	-664.52197	1632.56287	393.04205	-535.69275	1642.62244	485.14291	-690.65692	1591.78760	514.71167	-563.33234	1602.01831	529.12286	-624.16309	1426.58838	543.88501	-616.22046	1114.06079	400.24738	-609.24139	1362.79138	345.00452	-607.99084	1199.21558	578.67920	-533.25494	1247.54822	451.24634	-768.40924	1399.02649	464.73117	-854.60571	1210.31567	460.08691	-884.54535	1091.10254	429.00940	-907.57660	966.25287	396.07233	-900.21869	848.24133	432.48959	-941.91864	856.30255	409.08160	-947.30823	774.55383	480.34613	-460.04141	1390.74109	486.65018	-363.95615	1180.41821	470.60730	-329.95929	1073.18909	449.80490	-301.67596	940.06934	407.99417	-312.61517	843.36316	449.63205	-276.98090	842.15942	422.32440	-271.42947	771.77594	386.05801	-719.52673	947.05420	399.81122	-485.60303	947.75842	549.91528	-681.06665	978.80847	555.96704	-531.93347	986.64465	453.74359	-772.25049	647.42633	461.04498	-735.56207	469.84106	517.54254	-754.56952	285.40366	539.25824	-729.83875	73.80393	580.75848	-697.05267	36.80039	387.00558	-709.11853	34.47082	471.85016	-440.32620	654.00342	466.26437	-474.10367	474.16403	519.14258	-462.21960	292.81934	546.98425	-501.12497	76.14956	587.44592	-552.87518	41.89029	404.90976	-500.46149	36.45744	449.04465	-639.78857	1698.82190																																	 
4	0.030	358.27560	-664.49158	1632.59741	392.98758	-535.68311	1642.61389	485.09653	-690.62762	1591.81836	514.66284	-563.27612	1602.03699	529.02716	-624.18103	1426.64551	543.98138	-616.18219	1114.13257	400.15921	-609.25281	1362.82312	345.01712	-608.02313	1199.18909	578.63031	-533.12213	1247.63196	451.06665	-768.32922	1399.04504	464.86960	-854.63647	1210.39282	460.24387	-884.68018	1091.17932	429.19861	-907.66339	966.31970	396.34744	-900.33563	848.26129	432.78278	-942.04865	856.36597	409.38416	-947.49890	774.62354	480.12827	-459.99454	1390.82654	486.71915	-363.72098	1180.62390	470.72424	-329.58331	1073.44006	449.88116	-301.20667	940.32947	408.02151	-312.08398	843.64667	449.62842	-276.44186	842.45300	422.31152	-270.81189	772.00293	386.23730	-719.50226	947.08075	399.96268	-485.56198	947.78381	550.16699	-681.13599	978.88446	556.08972	-531.92041	986.66168	453.87103	-772.27777	647.45697	461.02420	-735.56360	469.88254	517.52502	-754.57574	285.42001	539.24451	-729.84106	73.79798	580.75708	-697.09436	36.81596	387.01587	-709.14282	34.49829	471.93484	-440.27362	654.02399	466.31387	-474.06805	474.18817	519.15112	-462.20590	292.82379	546.95032	-501.13641	76.14406	587.45117	-552.86591	41.86911	404.91202	-500.45605	36.47773	448.98190	-639.66290	1698.82068																																	 
